<?xml version="1.0" encoding="UTF-8" standalone="no"?>
<!-- This is a Stata 17.0 generated SVG file (http://www.stata.com) -->

<svg version="1.1" width="5.500in" height="4.000in" viewBox="0 0 3960 2880" xmlns="http://www.w3.org/2000/svg" xmlns:xlink="http://www.w3.org/1999/xlink">
	<desc>Stata Graph - abscatpplot2</desc>
	<rect x="0" y="0" width="3960" height="2880" style="fill:#EAF2F3;stroke:none"/>
	<rect x="0.00" y="0.00" width="3959.88" height="2880.00" style="fill:#FFFFFF"/>
	<rect x="2.88" y="2.88" width="3954.12" height="2874.24" style="fill:none;stroke:#FFFFFF;stroke-width:5.76"/>
	<rect x="130.80" y="250.60" width="3728.22" height="2498.59" style="fill:#FFFFFF"/>
	<rect x="133.68" y="253.48" width="3722.46" height="2492.83" style="fill:none;stroke:#FFFFFF;stroke-width:5.76"/>
	<line x1="130.80" y1="459.13" x2="3859.02" y2="459.13" style="stroke:#C0C0C0;stroke-width:5.76"/>
	<line x1="954.86" y1="2250.22" x2="2675.72" y2="2250.22" style="stroke:#000000;stroke-width:5.76"/>
	<text x="1815.17" y="2701.10" style="font-family:'Helvetica';font-size:43.19px;fill:#000000" text-anchor="middle">Proportion</text>
	<line x1="954.86" y1="2250.22" x2="954.86" y2="2298.60" style="stroke:#000000;stroke-width:5.76"/>
	<line x1="1528.44" y1="2250.22" x2="1528.44" y2="2298.60" style="stroke:#000000;stroke-width:5.76"/>
	<line x1="2102.14" y1="2250.22" x2="2102.14" y2="2298.60" style="stroke:#000000;stroke-width:5.76"/>
	<line x1="2675.72" y1="2250.22" x2="2675.72" y2="2298.60" style="stroke:#000000;stroke-width:5.76"/>
	<text x="954.73" y="2459.04" style="font-family:'Helvetica';font-size:43.19px;fill:#000000" text-anchor="middle">.25</text>
	<text x="1528.44" y="2459.04" style="font-family:'Helvetica';font-size:43.19px;fill:#000000" text-anchor="middle">.5</text>
	<text x="2102.02" y="2459.04" style="font-family:'Helvetica';font-size:43.19px;fill:#000000" text-anchor="middle">.75</text>
	<text x="2675.72" y="2459.04" style="font-family:'Helvetica';font-size:43.19px;fill:#000000" text-anchor="middle">1</text>
	<text x="236.12" y="329.11" style="font-family:'Helvetica';font-size:43.19px;fill:#000000">study</text>
	<text x="236.12" y="716.34" style="font-family:'Helvetica';font-size:43.19px;fill:#000000">Kelly (2006)</text>
	<text x="236.12" y="909.89" style="font-family:'Helvetica';font-size:43.19px;fill:#000000">You (2007)</text>
	<text x="236.12" y="1103.56" style="font-family:'Helvetica';font-size:43.19px;fill:#000000">Ko (2006)</text>
	<text x="236.12" y="1297.24" style="font-family:'Helvetica';font-size:43.19px;fill:#000000">Selvaggi (2006)</text>
	<text x="236.12" y="1490.79" style="font-family:'Helvetica';font-size:43.19px;fill:#000000">Wright (2006)</text>
	<text x="236.12" y="1684.46" style="font-family:'Helvetica';font-size:43.19px;fill:#000000">Bruner (2004)</text>
	<text x="236.12" y="2071.69" style="font-family:'Helvetica';font-size:43.19px;fill:#000000">Population Summary (Isq = 68.22%, p = 0.00)</text>
	<text x="2803.68" y="329.11" style="font-family:'Helvetica';font-size:43.19px;fill:#000000">Proportion (95% CI)</text>
	<text x="2803.68" y="716.34" style="font-family:'Helvetica';font-size:43.19px;fill:#000000">0.73 (0.59, 0.83)</text>
	<text x="2803.68" y="909.89" style="font-family:'Helvetica';font-size:43.19px;fill:#000000">0.46 (0.43, 0.49)</text>
	<text x="2803.68" y="1103.56" style="font-family:'Helvetica';font-size:43.19px;fill:#000000">0.40 (0.38, 0.42)</text>
	<text x="2803.68" y="1297.24" style="font-family:'Helvetica';font-size:43.19px;fill:#000000">0.40 (0.36, 0.43)</text>
	<text x="2803.68" y="1490.79" style="font-family:'Helvetica';font-size:43.19px;fill:#000000">0.34 (0.32, 0.37)</text>
	<text x="2803.68" y="1684.46" style="font-family:'Helvetica';font-size:43.19px;fill:#000000">0.27 (0.19, 0.37)</text>
	<text x="3205.62" y="329.11" style="font-family:'Helvetica';font-size:43.19px;fill:#000000">Smooth Est (95% CI)</text>
	<text x="3205.62" y="716.34" style="font-family:'Helvetica';font-size:43.19px;fill:#000000">0.57 (0.50, 0.64)</text>
	<text x="3205.62" y="909.89" style="font-family:'Helvetica';font-size:43.19px;fill:#000000">0.46 (0.43, 0.49)</text>
	<text x="3205.62" y="1103.56" style="font-family:'Helvetica';font-size:43.19px;fill:#000000">0.40 (0.38, 0.42)</text>
	<text x="3205.62" y="1297.24" style="font-family:'Helvetica';font-size:43.19px;fill:#000000">0.39 (0.36, 0.42)</text>
	<text x="3205.62" y="1490.79" style="font-family:'Helvetica';font-size:43.19px;fill:#000000">0.34 (0.32, 0.37)</text>
	<text x="3205.62" y="1684.46" style="font-family:'Helvetica';font-size:43.19px;fill:#000000">0.30 (0.25, 0.36)</text>
	<text x="3205.62" y="2071.69" style="font-family:'Helvetica';font-size:43.19px;fill:#000000">0.41 (0.36, 0.46)</text>
	<text x="3634.79" y="329.11" style="font-family:'Helvetica';font-size:43.19px;fill:#000000">% Weight</text>
	<text x="3634.79" y="716.34" style="font-family:'Helvetica';font-size:43.19px;fill:#000000">0.94</text>
	<text x="3634.79" y="909.89" style="font-family:'Helvetica';font-size:43.19px;fill:#000000">21.88</text>
	<text x="3634.79" y="1103.56" style="font-family:'Helvetica';font-size:43.19px;fill:#000000">41.89</text>
	<text x="3634.79" y="1297.24" style="font-family:'Helvetica';font-size:43.19px;fill:#000000">12.07</text>
	<text x="3634.79" y="1490.79" style="font-family:'Helvetica';font-size:43.19px;fill:#000000">21.75</text>
	<text x="3634.79" y="1684.46" style="font-family:'Helvetica';font-size:43.19px;fill:#000000">1.47</text>
	<text x="3634.79" y="2071.69" style="font-family:'Helvetica';font-size:43.19px;fill:#000000">100.00</text>
	<rect x="1684.74" y="686.10" width="30.17" height="30.17" style="fill:#B4B4B4"/>
	<rect x="1689.06" y="690.42" width="21.53" height="21.53" style="fill:none;stroke:#B4B4B4;stroke-width:8.64"/>
	<rect x="1388.61" y="838.69" width="112.34" height="112.35" style="fill:#B4B4B4"/>
	<rect x="1392.93" y="843.01" width="103.70" height="103.71" style="fill:none;stroke:#B4B4B4;stroke-width:8.64"/>
	<rect x="1224.39" y="1012.44" width="152.19" height="152.19" style="fill:#B4B4B4"/>
	<rect x="1228.71" y="1016.76" width="143.55" height="143.55" style="fill:none;stroke:#B4B4B4;stroke-width:8.64"/>
	<rect x="1241.47" y="1239.28" width="85.61" height="85.61" style="fill:#B4B4B4"/>
	<rect x="1245.79" y="1243.60" width="76.97" height="76.97" style="fill:none;stroke:#B4B4B4;stroke-width:8.64"/>
	<rect x="1107.70" y="1419.72" width="112.09" height="112.10" style="fill:#B4B4B4"/>
	<rect x="1112.02" y="1424.04" width="103.46" height="103.46" style="fill:none;stroke:#B4B4B4;stroke-width:8.64"/>
	<rect x="1051.52" y="1651.51" width="35.62" height="35.62" style="fill:#B4B4B4"/>
	<rect x="1055.84" y="1655.83" width="26.98" height="26.98" style="fill:none;stroke:#B4B4B4;stroke-width:8.64"/>
	<line x1="1736.21" y1="701.19" x2="2283.06" y2="701.19" style="stroke:#D0D0D0;stroke-width:36.00"/>
	<line x1="1378.08" y1="894.74" x2="1508.88" y2="894.74" style="stroke:#D0D0D0;stroke-width:36.00"/>
	<line x1="1256.06" y1="1088.42" x2="1347.51" y2="1088.42" style="stroke:#D0D0D0;stroke-width:36.00"/>
	<line x1="1206.19" y1="1282.09" x2="1375.36" y2="1282.09" style="stroke:#D0D0D0;stroke-width:36.00"/>
	<line x1="1104.96" y1="1475.64" x2="1223.76" y2="1475.64" style="stroke:#D0D0D0;stroke-width:36.00"/>
	<line x1="954.86" y1="1669.32" x2="1222.77" y2="1669.32" style="stroke:#D0D0D0;stroke-width:36.00"/>
	<line x1="1519.65" y1="701.19" x2="1858.97" y2="701.19" style="stroke:#000000;stroke-width:8.64"/>
	<line x1="1376.60" y1="894.74" x2="1496.01" y2="894.74" style="stroke:#000000;stroke-width:8.64"/>
	<line x1="1251.24" y1="1088.42" x2="1349.62" y2="1088.42" style="stroke:#000000;stroke-width:8.64"/>
	<line x1="1217.45" y1="1282.09" x2="1355.56" y2="1282.09" style="stroke:#000000;stroke-width:8.64"/>
	<line x1="1111.77" y1="1475.64" x2="1220.18" y2="1475.64" style="stroke:#000000;stroke-width:8.64"/>
	<line x1="954.86" y1="1669.32" x2="1202.48" y2="1669.32" style="stroke:#000000;stroke-width:8.64"/>
	<polygon points="1683.08,701.19 1699.83,684.44 1716.58,701.19 1699.83,717.94" style="fill:#000000"/>
	<polygon points="1689.19,701.19 1699.83,690.55 1710.47,701.19 1699.83,711.83" style="fill:none;stroke:#000000;stroke-width:8.64"/>
	<polygon points="1428.03,894.86 1444.78,878.11 1461.53,894.86 1444.78,911.62" style="fill:#000000"/>
	<polygon points="1434.14,894.86 1444.78,884.22 1455.42,894.86 1444.78,905.51" style="fill:none;stroke:#000000;stroke-width:8.64"/>
	<polygon points="1283.74,1088.54 1300.49,1071.79 1317.24,1088.54 1300.49,1105.29" style="fill:#000000"/>
	<polygon points="1289.85,1088.54 1300.49,1077.90 1311.13,1088.54 1300.49,1099.18" style="fill:none;stroke:#000000;stroke-width:8.64"/>
	<polygon points="1267.53,1282.09 1284.28,1265.34 1301.03,1282.09 1284.28,1298.84" style="fill:#000000"/>
	<polygon points="1273.64,1282.09 1284.28,1271.45 1294.92,1282.09 1284.28,1292.73" style="fill:none;stroke:#000000;stroke-width:8.64"/>
	<polygon points="1146.99,1475.76 1163.74,1459.01 1180.50,1475.76 1163.74,1492.52" style="fill:#000000"/>
	<polygon points="1153.10,1475.76 1163.74,1465.12 1174.39,1475.76 1163.74,1486.41" style="fill:none;stroke:#000000;stroke-width:8.64"/>
	<polygon points="1052.57,1669.32 1069.32,1652.56 1086.08,1669.32 1069.32,1686.07" style="fill:#000000"/>
	<polygon points="1058.68,1669.32 1069.32,1658.67 1079.97,1669.32 1069.32,1679.96" style="fill:none;stroke:#000000;stroke-width:8.64"/>
	<line x1="954.86" y1="1669.32" x2="993.47" y2="1648.28" stroke-linecap="round" style="stroke:#FF0000;stroke-width:8.64"/>
	<line x1="954.86" y1="1669.32" x2="993.47" y2="1690.35" stroke-linecap="round" style="stroke:#FF0000;stroke-width:8.64"/>
	<line x1="1216.21" y1="2056.54" x2="1326.60" y2="2134.01" style="stroke:#FF0000;stroke-width:8.64"/>
	<line x1="1326.60" y1="2134.01" x2="1434.51" y2="2056.54" style="stroke:#FF0000;stroke-width:8.64"/>
	<line x1="1434.51" y1="2056.54" x2="1326.60" y2="1979.07" style="stroke:#FF0000;stroke-width:8.64"/>
	<line x1="1326.60" y1="1979.07" x2="1216.21" y2="2056.54" style="stroke:#FF0000;stroke-width:8.64"/>
	<circle cx="2045.84" cy="701.19" r="14.97" style="fill:none;stroke:#808080;stroke-width:8.64"/>
	<circle cx="1443.17" cy="894.86" r="14.97" style="fill:none;stroke:#808080;stroke-width:8.64"/>
	<circle cx="1301.36" cy="1088.54" r="14.97" style="fill:none;stroke:#808080;stroke-width:8.64"/>
	<circle cx="1289.35" cy="1282.09" r="14.97" style="fill:none;stroke:#808080;stroke-width:8.64"/>
	<circle cx="1163.25" cy="1475.76" r="14.97" style="fill:none;stroke:#808080;stroke-width:8.64"/>
	<circle cx="997.92" cy="1669.32" r="14.97" style="fill:none;stroke:#808080;stroke-width:8.64"/>
	<line x1="1326.60" y1="2250.22" x2="1326.60" y2="2227.20" style="stroke:#FF0000;stroke-width:5.76"/>
	<line x1="1326.60" y1="2207.03" x2="1326.60" y2="2184.01" style="stroke:#FF0000;stroke-width:5.76"/>
	<line x1="1326.60" y1="2163.84" x2="1326.60" y2="2140.82" style="stroke:#FF0000;stroke-width:5.76"/>
	<line x1="1326.60" y1="2120.65" x2="1326.60" y2="2097.63" style="stroke:#FF0000;stroke-width:5.76"/>
	<line x1="1326.60" y1="2077.46" x2="1326.60" y2="2054.44" style="stroke:#FF0000;stroke-width:5.76"/>
	<line x1="1326.60" y1="2034.27" x2="1326.60" y2="2011.25" style="stroke:#FF0000;stroke-width:5.76"/>
	<line x1="1326.60" y1="1991.08" x2="1326.60" y2="1968.06" style="stroke:#FF0000;stroke-width:5.76"/>
	<line x1="1326.60" y1="1947.89" x2="1326.60" y2="1924.87" style="stroke:#FF0000;stroke-width:5.76"/>
	<line x1="1326.60" y1="1904.70" x2="1326.60" y2="1881.68" style="stroke:#FF0000;stroke-width:5.76"/>
	<line x1="1326.60" y1="1861.51" x2="1326.60" y2="1838.49" style="stroke:#FF0000;stroke-width:5.76"/>
	<line x1="1326.60" y1="1818.32" x2="1326.60" y2="1795.17" style="stroke:#FF0000;stroke-width:5.76"/>
	<line x1="1326.60" y1="1775.13" x2="1326.60" y2="1751.98" style="stroke:#FF0000;stroke-width:5.76"/>
	<line x1="1326.60" y1="1731.81" x2="1326.60" y2="1708.79" style="stroke:#FF0000;stroke-width:5.76"/>
	<line x1="1326.60" y1="1688.62" x2="1326.60" y2="1665.60" style="stroke:#FF0000;stroke-width:5.76"/>
	<line x1="1326.60" y1="1645.43" x2="1326.60" y2="1622.41" style="stroke:#FF0000;stroke-width:5.76"/>
	<line x1="1326.60" y1="1602.24" x2="1326.60" y2="1579.22" style="stroke:#FF0000;stroke-width:5.76"/>
	<line x1="1326.60" y1="1559.05" x2="1326.60" y2="1536.03" style="stroke:#FF0000;stroke-width:5.76"/>
	<line x1="1326.60" y1="1515.86" x2="1326.60" y2="1492.84" style="stroke:#FF0000;stroke-width:5.76"/>
	<line x1="1326.60" y1="1472.67" x2="1326.60" y2="1449.65" style="stroke:#FF0000;stroke-width:5.76"/>
	<line x1="1326.60" y1="1429.48" x2="1326.60" y2="1406.46" style="stroke:#FF0000;stroke-width:5.76"/>
	<line x1="1326.60" y1="1386.29" x2="1326.60" y2="1363.27" style="stroke:#FF0000;stroke-width:5.76"/>
	<line x1="1326.60" y1="1343.10" x2="1326.60" y2="1320.08" style="stroke:#FF0000;stroke-width:5.76"/>
	<line x1="1326.60" y1="1299.91" x2="1326.60" y2="1276.89" style="stroke:#FF0000;stroke-width:5.76"/>
	<line x1="1326.60" y1="1256.72" x2="1326.60" y2="1233.70" style="stroke:#FF0000;stroke-width:5.76"/>
	<line x1="1326.60" y1="1213.53" x2="1326.60" y2="1190.51" style="stroke:#FF0000;stroke-width:5.76"/>
	<line x1="1326.60" y1="1170.34" x2="1326.60" y2="1147.32" style="stroke:#FF0000;stroke-width:5.76"/>
	<line x1="1326.60" y1="1127.15" x2="1326.60" y2="1104.13" style="stroke:#FF0000;stroke-width:5.76"/>
	<line x1="1326.60" y1="1083.96" x2="1326.60" y2="1060.94" style="stroke:#FF0000;stroke-width:5.76"/>
	<line x1="1326.60" y1="1040.77" x2="1326.60" y2="1017.75" style="stroke:#FF0000;stroke-width:5.76"/>
	<line x1="1326.60" y1="997.58" x2="1326.60" y2="974.56" style="stroke:#FF0000;stroke-width:5.76"/>
	<line x1="1326.60" y1="954.39" x2="1326.60" y2="931.37" style="stroke:#FF0000;stroke-width:5.76"/>
	<line x1="1326.60" y1="911.20" x2="1326.60" y2="888.06" style="stroke:#FF0000;stroke-width:5.76"/>
	<line x1="1326.60" y1="868.01" x2="1326.60" y2="844.87" style="stroke:#FF0000;stroke-width:5.76"/>
	<line x1="1326.60" y1="824.70" x2="1326.60" y2="801.68" style="stroke:#FF0000;stroke-width:5.76"/>
	<line x1="1326.60" y1="781.51" x2="1326.60" y2="758.49" style="stroke:#FF0000;stroke-width:5.76"/>
	<line x1="1326.60" y1="738.32" x2="1326.60" y2="715.30" style="stroke:#FF0000;stroke-width:5.76"/>
	<line x1="1326.60" y1="695.13" x2="1326.60" y2="672.11" style="stroke:#FF0000;stroke-width:5.76"/>
	<line x1="1326.60" y1="651.94" x2="1326.60" y2="628.92" style="stroke:#FF0000;stroke-width:5.76"/>
	<line x1="1326.60" y1="608.75" x2="1326.60" y2="585.73" style="stroke:#FF0000;stroke-width:5.76"/>
	<line x1="1326.60" y1="565.56" x2="1326.60" y2="542.54" style="stroke:#FF0000;stroke-width:5.76"/>
	<line x1="1326.60" y1="522.37" x2="1326.60" y2="499.35" style="stroke:#FF0000;stroke-width:5.76"/>
	<line x1="1326.60" y1="479.17" x2="1326.60" y2="459.13" style="stroke:#FF0000;stroke-width:5.76"/>
	<text x="1994.97" y="198.65" style="font-family:'Helvetica';font-size:115.21px;fill:#000000" text-anchor="middle">Atypical cervical cytology</text>
</svg>
