<?xml version="1.0" encoding="UTF-8" standalone="no"?>
<!-- This is a Stata 17.0 generated SVG file (http://www.stata.com) -->

<svg version="1.1" width="5.500in" height="4.000in" viewBox="0 0 3960 2880" xmlns="http://www.w3.org/2000/svg" xmlns:xlink="http://www.w3.org/1999/xlink">
	<desc>Stata Graph - abscatpplot3</desc>
	<rect x="0" y="0" width="3960" height="2880" style="fill:#EAF2F3;stroke:none"/>
	<rect x="0.00" y="0.00" width="3959.88" height="2880.00" style="fill:#FFFFFF"/>
	<rect x="2.88" y="2.88" width="3954.12" height="2874.24" style="fill:none;stroke:#FFFFFF;stroke-width:5.76"/>
	<rect x="130.80" y="250.60" width="3728.22" height="2498.59" style="fill:#FFFFFF"/>
	<rect x="133.68" y="253.48" width="3722.46" height="2492.83" style="fill:none;stroke:#FFFFFF;stroke-width:5.76"/>
	<line x1="130.80" y1="459.13" x2="3859.02" y2="459.13" style="stroke:#C0C0C0;stroke-width:5.76"/>
	<line x1="971.56" y1="2250.22" x2="2692.43" y2="2250.22" style="stroke:#000000;stroke-width:5.76"/>
	<text x="1832.00" y="2701.10" style="font-family:'Helvetica';font-size:43.19px;fill:#000000" text-anchor="middle">Proportion</text>
	<line x1="971.56" y1="2250.22" x2="971.56" y2="2298.60" style="stroke:#000000;stroke-width:5.76"/>
	<line x1="1545.27" y1="2250.22" x2="1545.27" y2="2298.60" style="stroke:#000000;stroke-width:5.76"/>
	<line x1="2118.85" y1="2250.22" x2="2118.85" y2="2298.60" style="stroke:#000000;stroke-width:5.76"/>
	<line x1="2692.43" y1="2250.22" x2="2692.43" y2="2298.60" style="stroke:#000000;stroke-width:5.76"/>
	<text x="971.56" y="2459.04" style="font-family:'Helvetica';font-size:43.19px;fill:#000000" text-anchor="middle">.25</text>
	<text x="1545.14" y="2459.04" style="font-family:'Helvetica';font-size:43.19px;fill:#000000" text-anchor="middle">.5</text>
	<text x="2118.72" y="2459.04" style="font-family:'Helvetica';font-size:43.19px;fill:#000000" text-anchor="middle">.75</text>
	<text x="2692.43" y="2459.04" style="font-family:'Helvetica';font-size:43.19px;fill:#000000" text-anchor="middle">1</text>
	<text x="236.12" y="329.11" style="font-family:'Helvetica';font-size:43.19px;fill:#000000">study</text>
	<text x="236.12" y="716.34" style="font-family:'Helvetica';font-size:43.19px;fill:#000000">Cuschieri (2007)</text>
	<text x="236.12" y="909.89" style="font-family:'Helvetica';font-size:43.19px;fill:#000000">Guyot (2003)</text>
	<text x="236.12" y="1103.56" style="font-family:'Helvetica';font-size:43.19px;fill:#000000">Moss (2006)</text>
	<text x="236.12" y="1297.24" style="font-family:'Helvetica';font-size:43.19px;fill:#000000">Rebello (2001)</text>
	<text x="236.12" y="1490.79" style="font-family:'Helvetica';font-size:43.19px;fill:#000000">Zielinski (2001)</text>
	<text x="236.12" y="1684.46" style="font-family:'Helvetica';font-size:43.19px;fill:#000000">Cuzick (2003)</text>
	<text x="236.12" y="2071.69" style="font-family:'Helvetica';font-size:43.19px;fill:#000000">Population Summary (Isq = 75.46%, p = 0.00)</text>
	<text x="2820.39" y="329.11" style="font-family:'Helvetica';font-size:43.19px;fill:#000000">Proportion (95% CI)</text>
	<text x="2820.39" y="716.34" style="font-family:'Helvetica';font-size:43.19px;fill:#000000">0.61 (0.53, 0.67)</text>
	<text x="2820.39" y="909.89" style="font-family:'Helvetica';font-size:43.19px;fill:#000000">0.52 (0.33, 0.71)</text>
	<text x="2820.39" y="1103.56" style="font-family:'Helvetica';font-size:43.19px;fill:#000000">0.46 (0.44, 0.47)</text>
	<text x="2820.39" y="1297.24" style="font-family:'Helvetica';font-size:43.19px;fill:#000000">0.41 (0.31, 0.53)</text>
	<text x="2820.39" y="1490.79" style="font-family:'Helvetica';font-size:43.19px;fill:#000000">0.35 (0.29, 0.41)</text>
	<text x="2820.39" y="1684.46" style="font-family:'Helvetica';font-size:43.19px;fill:#000000">0.26 (0.19, 0.34)</text>
	<text x="3215.89" y="329.11" style="font-family:'Helvetica';font-size:43.19px;fill:#000000">Smooth Est (95% CI)</text>
	<text x="3215.89" y="716.34" style="font-family:'Helvetica';font-size:43.19px;fill:#000000">0.60 (0.53, 0.65)</text>
	<text x="3215.89" y="909.89" style="font-family:'Helvetica';font-size:43.19px;fill:#000000">0.48 (0.36, 0.60)</text>
	<text x="3215.89" y="1103.56" style="font-family:'Helvetica';font-size:43.19px;fill:#000000">0.47 (0.42, 0.49)</text>
	<text x="3215.89" y="1297.24" style="font-family:'Helvetica';font-size:43.19px;fill:#000000">0.42 (0.33, 0.49)</text>
	<text x="3215.89" y="1490.79" style="font-family:'Helvetica';font-size:43.19px;fill:#000000">0.35 (0.30, 0.40)</text>
	<text x="3215.89" y="1684.46" style="font-family:'Helvetica';font-size:43.19px;fill:#000000">0.28 (0.22, 0.34)</text>
	<text x="3215.89" y="2071.69" style="font-family:'Helvetica';font-size:43.19px;fill:#000000">0.43 (0.35, 0.51)</text>
	<text x="3638.13" y="329.11" style="font-family:'Helvetica';font-size:43.19px;fill:#000000">% Weight</text>
	<text x="3638.13" y="716.34" style="font-family:'Helvetica';font-size:43.19px;fill:#000000">4.34</text>
	<text x="3638.13" y="909.89" style="font-family:'Helvetica';font-size:43.19px;fill:#000000">0.54</text>
	<text x="3638.13" y="1103.56" style="font-family:'Helvetica';font-size:43.19px;fill:#000000">86.49</text>
	<text x="3638.13" y="1297.24" style="font-family:'Helvetica';font-size:43.19px;fill:#000000">1.72</text>
	<text x="3638.13" y="1490.79" style="font-family:'Helvetica';font-size:43.19px;fill:#000000">4.59</text>
	<text x="3638.13" y="1684.46" style="font-family:'Helvetica';font-size:43.19px;fill:#000000">2.31</text>
	<text x="3638.13" y="2071.69" style="font-family:'Helvetica';font-size:43.19px;fill:#000000">100.00</text>
	<rect x="1759.49" y="680.78" width="40.81" height="40.82" style="fill:#B4B4B4"/>
	<rect x="1763.81" y="685.10" width="32.18" height="32.18" style="fill:none;stroke:#B4B4B4;stroke-width:8.64"/>
	<rect x="1493.43" y="884.85" width="20.02" height="20.03" style="fill:#B4B4B4"/>
	<rect x="1497.75" y="889.17" width="11.38" height="11.39" style="fill:none;stroke:#B4B4B4;stroke-width:8.64"/>
	<rect x="1393.19" y="1012.44" width="152.19" height="152.19" style="fill:#B4B4B4"/>
	<rect x="1397.51" y="1016.76" width="143.55" height="143.55" style="fill:none;stroke:#B4B4B4;stroke-width:8.64"/>
	<rect x="1339.48" y="1267.62" width="28.93" height="28.94" style="fill:#B4B4B4"/>
	<rect x="1343.80" y="1271.94" width="20.29" height="20.30" style="fill:none;stroke:#B4B4B4;stroke-width:8.64"/>
	<rect x="1188.63" y="1454.86" width="41.80" height="41.81" style="fill:#B4B4B4"/>
	<rect x="1192.95" y="1459.18" width="33.16" height="33.17" style="fill:none;stroke:#B4B4B4;stroke-width:8.64"/>
	<rect x="1013.90" y="1653.24" width="32.15" height="32.15" style="fill:#B4B4B4"/>
	<rect x="1018.22" y="1657.56" width="23.51" height="23.51" style="fill:none;stroke:#B4B4B4;stroke-width:8.64"/>
	<line x1="1623.97" y1="701.19" x2="1939.91" y2="701.19" style="stroke:#D0D0D0;stroke-width:36.00"/>
	<line x1="1154.34" y1="894.74" x2="2021.58" y2="894.74" style="stroke:#D0D0D0;stroke-width:36.00"/>
	<line x1="1408.40" y1="1088.42" x2="1482.15" y2="1088.42" style="stroke:#D0D0D0;stroke-width:36.00"/>
	<line x1="1106.45" y1="1282.09" x2="1605.66" y2="1282.09" style="stroke:#D0D0D0;stroke-width:36.00"/>
	<line x1="1055.84" y1="1475.64" x2="1346.90" y2="1475.64" style="stroke:#D0D0D0;stroke-width:36.00"/>
	<line x1="971.56" y1="1669.32" x2="1187.51" y2="1669.32" style="stroke:#D0D0D0;stroke-width:36.00"/>
	<line x1="1624.59" y1="701.19" x2="1886.82" y2="701.19" style="stroke:#000000;stroke-width:8.64"/>
	<line x1="1222.77" y1="894.74" x2="1772.72" y2="894.74" style="stroke:#000000;stroke-width:8.64"/>
	<line x1="1366.32" y1="1088.42" x2="1523.98" y2="1088.42" style="stroke:#000000;stroke-width:8.64"/>
	<line x1="1163.50" y1="1282.09" x2="1526.33" y2="1282.09" style="stroke:#000000;stroke-width:8.64"/>
	<line x1="1083.31" y1="1475.64" x2="1326.35" y2="1475.64" style="stroke:#000000;stroke-width:8.64"/>
	<line x1="971.56" y1="1669.32" x2="1167.09" y2="1669.32" style="stroke:#000000;stroke-width:8.64"/>
	<polygon points="1763.14,701.19 1779.90,684.44 1796.65,701.19 1779.90,717.94" style="fill:#000000"/>
	<polygon points="1769.25,701.19 1779.90,690.55 1790.54,701.19 1779.90,711.83" style="fill:none;stroke:#000000;stroke-width:8.64"/>
	<polygon points="1486.69,894.86 1503.44,878.11 1520.19,894.86 1503.44,911.62" style="fill:#000000"/>
	<polygon points="1492.80,894.86 1503.44,884.22 1514.08,894.86 1503.44,905.51" style="fill:none;stroke:#000000;stroke-width:8.64"/>
	<polygon points="1452.53,1088.54 1469.28,1071.79 1486.04,1088.54 1469.28,1105.29" style="fill:#000000"/>
	<polygon points="1458.64,1088.54 1469.28,1077.90 1479.93,1088.54 1469.28,1099.18" style="fill:none;stroke:#000000;stroke-width:8.64"/>
	<polygon points="1337.20,1282.09 1353.95,1265.34 1370.70,1282.09 1353.95,1298.84" style="fill:#000000"/>
	<polygon points="1343.31,1282.09 1353.95,1271.45 1364.59,1282.09 1353.95,1292.73" style="fill:none;stroke:#000000;stroke-width:8.64"/>
	<polygon points="1192.78,1475.76 1209.53,1459.01 1226.28,1475.76 1209.53,1492.52" style="fill:#000000"/>
	<polygon points="1198.89,1475.76 1209.53,1465.12 1220.18,1475.76 1209.53,1486.41" style="fill:none;stroke:#000000;stroke-width:8.64"/>
	<polygon points="1013.22,1669.32 1029.97,1652.56 1046.72,1669.32 1029.97,1686.07" style="fill:#000000"/>
	<polygon points="1019.33,1669.32 1029.97,1658.67 1040.61,1669.32 1029.97,1679.96" style="fill:none;stroke:#000000;stroke-width:8.64"/>
	<line x1="971.56" y1="1669.32" x2="1010.17" y2="1648.28" stroke-linecap="round" style="stroke:#FF0000;stroke-width:8.64"/>
	<line x1="971.56" y1="1669.32" x2="1010.17" y2="1690.35" stroke-linecap="round" style="stroke:#FF0000;stroke-width:8.64"/>
	<line x1="1190.72" y1="2056.54" x2="1388.60" y2="2134.01" style="stroke:#FF0000;stroke-width:8.64"/>
	<line x1="1388.60" y1="2134.01" x2="1573.73" y2="2056.54" style="stroke:#FF0000;stroke-width:8.64"/>
	<line x1="1573.73" y1="2056.54" x2="1388.60" y2="1979.07" style="stroke:#FF0000;stroke-width:8.64"/>
	<line x1="1388.60" y1="1979.07" x2="1190.72" y2="2056.54" style="stroke:#FF0000;stroke-width:8.64"/>
	<circle cx="1786.70" cy="701.19" r="14.97" style="fill:none;stroke:#808080;stroke-width:8.64"/>
	<circle cx="1595.01" cy="894.86" r="14.97" style="fill:none;stroke:#808080;stroke-width:8.64"/>
	<circle cx="1445.15" cy="1088.54" r="14.97" style="fill:none;stroke:#808080;stroke-width:8.64"/>
	<circle cx="1346.28" cy="1282.09" r="14.97" style="fill:none;stroke:#808080;stroke-width:8.64"/>
	<circle cx="1195.05" cy="1475.76" r="14.97" style="fill:none;stroke:#808080;stroke-width:8.64"/>
	<circle cx="994.83" cy="1669.32" r="14.97" style="fill:none;stroke:#808080;stroke-width:8.64"/>
	<line x1="1388.60" y1="2250.22" x2="1388.60" y2="2227.20" style="stroke:#FF0000;stroke-width:5.76"/>
	<line x1="1388.60" y1="2207.03" x2="1388.60" y2="2184.01" style="stroke:#FF0000;stroke-width:5.76"/>
	<line x1="1388.60" y1="2163.84" x2="1388.60" y2="2140.82" style="stroke:#FF0000;stroke-width:5.76"/>
	<line x1="1388.60" y1="2120.65" x2="1388.60" y2="2097.63" style="stroke:#FF0000;stroke-width:5.76"/>
	<line x1="1388.60" y1="2077.46" x2="1388.60" y2="2054.44" style="stroke:#FF0000;stroke-width:5.76"/>
	<line x1="1388.60" y1="2034.27" x2="1388.60" y2="2011.25" style="stroke:#FF0000;stroke-width:5.76"/>
	<line x1="1388.60" y1="1991.08" x2="1388.60" y2="1968.06" style="stroke:#FF0000;stroke-width:5.76"/>
	<line x1="1388.60" y1="1947.89" x2="1388.60" y2="1924.87" style="stroke:#FF0000;stroke-width:5.76"/>
	<line x1="1388.60" y1="1904.70" x2="1388.60" y2="1881.68" style="stroke:#FF0000;stroke-width:5.76"/>
	<line x1="1388.60" y1="1861.51" x2="1388.60" y2="1838.49" style="stroke:#FF0000;stroke-width:5.76"/>
	<line x1="1388.60" y1="1818.32" x2="1388.60" y2="1795.17" style="stroke:#FF0000;stroke-width:5.76"/>
	<line x1="1388.60" y1="1775.13" x2="1388.60" y2="1751.98" style="stroke:#FF0000;stroke-width:5.76"/>
	<line x1="1388.60" y1="1731.81" x2="1388.60" y2="1708.79" style="stroke:#FF0000;stroke-width:5.76"/>
	<line x1="1388.60" y1="1688.62" x2="1388.60" y2="1665.60" style="stroke:#FF0000;stroke-width:5.76"/>
	<line x1="1388.60" y1="1645.43" x2="1388.60" y2="1622.41" style="stroke:#FF0000;stroke-width:5.76"/>
	<line x1="1388.60" y1="1602.24" x2="1388.60" y2="1579.22" style="stroke:#FF0000;stroke-width:5.76"/>
	<line x1="1388.60" y1="1559.05" x2="1388.60" y2="1536.03" style="stroke:#FF0000;stroke-width:5.76"/>
	<line x1="1388.60" y1="1515.86" x2="1388.60" y2="1492.84" style="stroke:#FF0000;stroke-width:5.76"/>
	<line x1="1388.60" y1="1472.67" x2="1388.60" y2="1449.65" style="stroke:#FF0000;stroke-width:5.76"/>
	<line x1="1388.60" y1="1429.48" x2="1388.60" y2="1406.46" style="stroke:#FF0000;stroke-width:5.76"/>
	<line x1="1388.60" y1="1386.29" x2="1388.60" y2="1363.27" style="stroke:#FF0000;stroke-width:5.76"/>
	<line x1="1388.60" y1="1343.10" x2="1388.60" y2="1320.08" style="stroke:#FF0000;stroke-width:5.76"/>
	<line x1="1388.60" y1="1299.91" x2="1388.60" y2="1276.89" style="stroke:#FF0000;stroke-width:5.76"/>
	<line x1="1388.60" y1="1256.72" x2="1388.60" y2="1233.70" style="stroke:#FF0000;stroke-width:5.76"/>
	<line x1="1388.60" y1="1213.53" x2="1388.60" y2="1190.51" style="stroke:#FF0000;stroke-width:5.76"/>
	<line x1="1388.60" y1="1170.34" x2="1388.60" y2="1147.32" style="stroke:#FF0000;stroke-width:5.76"/>
	<line x1="1388.60" y1="1127.15" x2="1388.60" y2="1104.13" style="stroke:#FF0000;stroke-width:5.76"/>
	<line x1="1388.60" y1="1083.96" x2="1388.60" y2="1060.94" style="stroke:#FF0000;stroke-width:5.76"/>
	<line x1="1388.60" y1="1040.77" x2="1388.60" y2="1017.75" style="stroke:#FF0000;stroke-width:5.76"/>
	<line x1="1388.60" y1="997.58" x2="1388.60" y2="974.56" style="stroke:#FF0000;stroke-width:5.76"/>
	<line x1="1388.60" y1="954.39" x2="1388.60" y2="931.37" style="stroke:#FF0000;stroke-width:5.76"/>
	<line x1="1388.60" y1="911.20" x2="1388.60" y2="888.06" style="stroke:#FF0000;stroke-width:5.76"/>
	<line x1="1388.60" y1="868.01" x2="1388.60" y2="844.87" style="stroke:#FF0000;stroke-width:5.76"/>
	<line x1="1388.60" y1="824.70" x2="1388.60" y2="801.68" style="stroke:#FF0000;stroke-width:5.76"/>
	<line x1="1388.60" y1="781.51" x2="1388.60" y2="758.49" style="stroke:#FF0000;stroke-width:5.76"/>
	<line x1="1388.60" y1="738.32" x2="1388.60" y2="715.30" style="stroke:#FF0000;stroke-width:5.76"/>
	<line x1="1388.60" y1="695.13" x2="1388.60" y2="672.11" style="stroke:#FF0000;stroke-width:5.76"/>
	<line x1="1388.60" y1="651.94" x2="1388.60" y2="628.92" style="stroke:#FF0000;stroke-width:5.76"/>
	<line x1="1388.60" y1="608.75" x2="1388.60" y2="585.73" style="stroke:#FF0000;stroke-width:5.76"/>
	<line x1="1388.60" y1="565.56" x2="1388.60" y2="542.54" style="stroke:#FF0000;stroke-width:5.76"/>
	<line x1="1388.60" y1="522.37" x2="1388.60" y2="499.35" style="stroke:#FF0000;stroke-width:5.76"/>
	<line x1="1388.60" y1="479.17" x2="1388.60" y2="459.13" style="stroke:#FF0000;stroke-width:5.76"/>
	<text x="1994.97" y="198.65" style="font-family:'Helvetica';font-size:115.21px;fill:#000000" text-anchor="middle">Atypical cervical cytology</text>
</svg>
