<?xml version="1.0" encoding="UTF-8" standalone="no"?>
<!-- This is a Stata 17.0 generated SVG file (http://www.stata.com) -->

<svg version="1.1" width="5.500in" height="4.000in" viewBox="0 0 3960 2880" xmlns="http://www.w3.org/2000/svg" xmlns:xlink="http://www.w3.org/1999/xlink">
	<desc>Stata Graph - abscatpplot</desc>
	<rect x="0" y="0" width="3960" height="2880" style="fill:#EAF2F3;stroke:none"/>
	<rect x="0.00" y="0.00" width="3959.88" height="2880.00" style="fill:#FFFFFF"/>
	<rect x="2.88" y="2.88" width="3954.12" height="2874.24" style="fill:none;stroke:#FFFFFF;stroke-width:5.76"/>
	<rect x="130.80" y="400.34" width="3728.22" height="2348.85" style="fill:#FFFFFF"/>
	<rect x="133.68" y="403.22" width="3722.46" height="2343.09" style="fill:none;stroke:#FFFFFF;stroke-width:5.76"/>
	<line x1="130.80" y1="529.67" x2="3859.02" y2="529.67" style="stroke:#C0C0C0;stroke-width:5.76"/>
	<line x1="954.11" y1="2487.82" x2="954.11" y2="529.67" style="stroke:#000000;stroke-width:8.64"/>
	<line x1="954.11" y1="2487.82" x2="2675.10" y2="2487.82" style="stroke:#000000;stroke-width:5.76"/>
	<text x="1814.55" y="2701.10" style="font-family:'Helvetica';font-size:43.19px;fill:#000000" text-anchor="middle">Proportion</text>
	<line x1="954.11" y1="2487.82" x2="954.11" y2="2509.85" style="stroke:#000000;stroke-width:5.76"/>
	<line x1="1298.26" y1="2487.82" x2="1298.26" y2="2509.85" style="stroke:#000000;stroke-width:5.76"/>
	<line x1="1642.53" y1="2487.82" x2="1642.53" y2="2509.85" style="stroke:#000000;stroke-width:5.76"/>
	<line x1="1986.68" y1="2487.82" x2="1986.68" y2="2509.85" style="stroke:#000000;stroke-width:5.76"/>
	<line x1="2330.83" y1="2487.82" x2="2330.83" y2="2509.85" style="stroke:#000000;stroke-width:5.76"/>
	<line x1="2675.10" y1="2487.82" x2="2675.10" y2="2509.85" style="stroke:#000000;stroke-width:5.76"/>
	<text x="954.11" y="2591.08" style="font-family:'Helvetica';font-size:43.19px;fill:#000000" text-anchor="middle">0</text>
	<text x="1298.26" y="2591.08" style="font-family:'Helvetica';font-size:43.19px;fill:#000000" text-anchor="middle">.1</text>
	<text x="1642.41" y="2591.08" style="font-family:'Helvetica';font-size:43.19px;fill:#000000" text-anchor="middle">.2</text>
	<text x="1986.68" y="2591.08" style="font-family:'Helvetica';font-size:43.19px;fill:#000000" text-anchor="middle">.3</text>
	<text x="2330.83" y="2591.08" style="font-family:'Helvetica';font-size:43.19px;fill:#000000" text-anchor="middle">.4</text>
	<text x="2674.98" y="2591.08" style="font-family:'Helvetica';font-size:43.19px;fill:#000000" text-anchor="middle">.5</text>
	<text x="236.12" y="478.85" style="font-family:'Helvetica';font-size:43.19px;fill:#000000">study</text>
	<text x="236.12" y="654.83" style="font-family:'Helvetica';font-size:43.19px;fill:#000000">Filho (2005)</text>
	<text x="236.12" y="742.82" style="font-family:'Helvetica';font-size:43.19px;fill:#000000">Monsonego (2007)</text>
	<text x="236.12" y="830.81" style="font-family:'Helvetica';font-size:43.19px;fill:#000000">Carozzi (2007)</text>
	<text x="236.12" y="918.80" style="font-family:'Helvetica';font-size:43.19px;fill:#000000">Saqi (2002)</text>
	<text x="236.12" y="1006.91" style="font-family:'Helvetica';font-size:43.19px;fill:#000000">Liu (2007)</text>
	<text x="236.12" y="1094.90" style="font-family:'Helvetica';font-size:43.19px;fill:#000000">Negri (2006)</text>
	<text x="236.12" y="1182.89" style="font-family:'Helvetica';font-size:43.19px;fill:#000000">Bose (2005)</text>
	<text x="236.12" y="1270.88" style="font-family:'Helvetica';font-size:43.19px;fill:#000000">Trunk (2004)</text>
	<text x="236.12" y="1358.87" style="font-family:'Helvetica';font-size:43.19px;fill:#000000">Carydis (2007)</text>
	<text x="236.12" y="1446.86" style="font-family:'Helvetica';font-size:43.19px;fill:#000000">Meyer (2007)</text>
	<text x="236.12" y="1534.84" style="font-family:'Helvetica';font-size:43.19px;fill:#000000">Ekalaksananan (2006)</text>
	<text x="236.12" y="1622.96" style="font-family:'Helvetica';font-size:43.19px;fill:#000000">Bollanca (2007)</text>
	<text x="236.12" y="1710.95" style="font-family:'Helvetica';font-size:43.19px;fill:#000000">Wentzensen (2005)</text>
	<text x="236.12" y="1798.94" style="font-family:'Helvetica';font-size:43.19px;fill:#000000">Bibbo (2002)</text>
	<text x="236.12" y="1886.92" style="font-family:'Helvetica';font-size:43.19px;fill:#000000">Pientong (2003)</text>
	<text x="236.12" y="1974.91" style="font-family:'Helvetica';font-size:43.19px;fill:#000000">Murphy (2003)</text>
	<text x="236.12" y="2062.90" style="font-family:'Helvetica';font-size:43.19px;fill:#000000">Pientong (2004)</text>
	<text x="236.12" y="2150.89" style="font-family:'Helvetica';font-size:43.19px;fill:#000000">Moore (2005)</text>
	<text x="236.12" y="2239.00" style="font-family:'Helvetica';font-size:43.19px;fill:#000000">Holladay (2006)</text>
	<text x="236.12" y="2414.98" style="font-family:'Helvetica';font-size:43.19px;fill:#000000">Population Summary (Isq = 46.96%, p = 0.00)</text>
	<text x="2803.06" y="478.85" style="font-family:'Helvetica';font-size:43.19px;fill:#000000">Proportion (95% CI)</text>
	<text x="2803.06" y="654.83" style="font-family:'Helvetica';font-size:43.19px;fill:#000000">0.49 (0.41, 0.56)</text>
	<text x="2803.06" y="742.82" style="font-family:'Helvetica';font-size:43.19px;fill:#000000">0.36 (0.29, 0.43)</text>
	<text x="2803.06" y="830.81" style="font-family:'Helvetica';font-size:43.19px;fill:#000000">0.35 (0.26, 0.45)</text>
	<text x="2803.06" y="918.80" style="font-family:'Helvetica';font-size:43.19px;fill:#000000">0.21 (0.10, 0.38)</text>
	<text x="2803.06" y="1006.91" style="font-family:'Helvetica';font-size:43.19px;fill:#000000">0.20 (0.10, 0.36)</text>
	<text x="2803.06" y="1094.90" style="font-family:'Helvetica';font-size:43.19px;fill:#000000">0.13 (0.05, 0.32)</text>
	<text x="2803.06" y="1182.89" style="font-family:'Helvetica';font-size:43.19px;fill:#000000">0.13 (0.05, 0.32)</text>
	<text x="2803.06" y="1270.88" style="font-family:'Helvetica';font-size:43.19px;fill:#000000">0.11 (0.05, 0.21)</text>
	<text x="2803.06" y="1358.87" style="font-family:'Helvetica';font-size:43.19px;fill:#000000">0.10 (0.03, 0.29)</text>
	<text x="2803.06" y="1446.86" style="font-family:'Helvetica';font-size:43.19px;fill:#000000">0.09 (0.06, 0.13)</text>
	<text x="2803.06" y="1534.84" style="font-family:'Helvetica';font-size:43.19px;fill:#000000">0.07 (0.04, 0.13)</text>
	<text x="2803.06" y="1622.96" style="font-family:'Helvetica';font-size:43.19px;fill:#000000">0.02 (0.00, 0.11)</text>
	<text x="2803.06" y="1710.95" style="font-family:'Helvetica';font-size:43.19px;fill:#000000">0.01 (0.00, 0.05)</text>
	<text x="2803.06" y="1798.94" style="font-family:'Helvetica';font-size:43.19px;fill:#000000">0.00 (0.00, 0.66)</text>
	<text x="2803.06" y="1886.92" style="font-family:'Helvetica';font-size:43.19px;fill:#000000">0.00 (0.00, 0.11)</text>
	<text x="2803.06" y="1974.91" style="font-family:'Helvetica';font-size:43.19px;fill:#000000">0.00 (0.00, 0.24)</text>
	<text x="2803.06" y="2062.90" style="font-family:'Helvetica';font-size:43.19px;fill:#000000">0.00 (0.00, 0.11)</text>
	<text x="2803.06" y="2150.89" style="font-family:'Helvetica';font-size:43.19px;fill:#000000">0.00 (0.00, 0.30)</text>
	<text x="2803.06" y="2239.00" style="font-family:'Helvetica';font-size:43.19px;fill:#000000">0.00 (0.00, 0.04)</text>
	<text x="3205.25" y="478.85" style="font-family:'Helvetica';font-size:43.19px;fill:#000000">Smooth Est (95% CI)</text>
	<text x="3205.25" y="654.83" style="font-family:'Helvetica';font-size:43.19px;fill:#000000">0.50 (0.27, 0.70)</text>
	<text x="3205.25" y="742.82" style="font-family:'Helvetica';font-size:43.19px;fill:#000000">0.35 (0.18, 0.57)</text>
	<text x="3205.25" y="830.81" style="font-family:'Helvetica';font-size:43.19px;fill:#000000">0.35 (0.16, 0.57)</text>
	<text x="3205.25" y="918.80" style="font-family:'Helvetica';font-size:43.19px;fill:#000000">0.19 (0.06, 0.43)</text>
	<text x="3205.25" y="1006.91" style="font-family:'Helvetica';font-size:43.19px;fill:#000000">0.20 (0.06, 0.42)</text>
	<text x="3205.25" y="1094.90" style="font-family:'Helvetica';font-size:43.19px;fill:#000000">0.11 (0.03, 0.35)</text>
	<text x="3205.25" y="1182.89" style="font-family:'Helvetica';font-size:43.19px;fill:#000000">0.12 (0.03, 0.35)</text>
	<text x="3205.25" y="1270.88" style="font-family:'Helvetica';font-size:43.19px;fill:#000000">0.11 (0.03, 0.26)</text>
	<text x="3205.25" y="1358.87" style="font-family:'Helvetica';font-size:43.19px;fill:#000000">0.08 (0.02, 0.30)</text>
	<text x="3205.25" y="1446.86" style="font-family:'Helvetica';font-size:43.19px;fill:#000000">0.09 (0.04, 0.20)</text>
	<text x="3205.25" y="1534.84" style="font-family:'Helvetica';font-size:43.19px;fill:#000000">0.07 (0.03, 0.18)</text>
	<text x="3205.25" y="1622.96" style="font-family:'Helvetica';font-size:43.19px;fill:#000000">0.03 (0.00, 0.12)</text>
	<text x="3205.25" y="1710.95" style="font-family:'Helvetica';font-size:43.19px;fill:#000000">0.01 (0.00, 0.06)</text>
	<text x="3205.25" y="1798.94" style="font-family:'Helvetica';font-size:43.19px;fill:#000000">0.05 (0.00, 0.44)</text>
	<text x="3205.25" y="1886.92" style="font-family:'Helvetica';font-size:43.19px;fill:#000000">0.02 (0.00, 0.12)</text>
	<text x="3205.25" y="1974.91" style="font-family:'Helvetica';font-size:43.19px;fill:#000000">0.02 (0.00, 0.21)</text>
	<text x="3205.25" y="2062.90" style="font-family:'Helvetica';font-size:43.19px;fill:#000000">0.02 (0.00, 0.12)</text>
	<text x="3205.25" y="2150.89" style="font-family:'Helvetica';font-size:43.19px;fill:#000000">0.03 (0.00, 0.24)</text>
	<text x="3205.25" y="2239.00" style="font-family:'Helvetica';font-size:43.19px;fill:#000000">0.01 (0.00, 0.05)</text>
	<text x="3205.25" y="2414.98" style="font-family:'Helvetica';font-size:43.19px;fill:#000000">0.17 (0.08, 0.29)</text>
	<text x="3634.66" y="478.85" style="font-family:'Helvetica';font-size:43.19px;fill:#000000">% Weight</text>
	<text x="3634.66" y="654.83" style="font-family:'Helvetica';font-size:43.19px;fill:#000000">26.21</text>
	<text x="3634.66" y="742.82" style="font-family:'Helvetica';font-size:43.19px;fill:#000000">24.51</text>
	<text x="3634.66" y="830.81" style="font-family:'Helvetica';font-size:43.19px;fill:#000000">13.39</text>
	<text x="3634.66" y="918.80" style="font-family:'Helvetica';font-size:43.19px;fill:#000000">2.89</text>
	<text x="3634.66" y="1006.91" style="font-family:'Helvetica';font-size:43.19px;fill:#000000">3.45</text>
	<text x="3634.66" y="1094.90" style="font-family:'Helvetica';font-size:43.19px;fill:#000000">1.48</text>
	<text x="3634.66" y="1182.89" style="font-family:'Helvetica';font-size:43.19px;fill:#000000">1.48</text>
	<text x="3634.66" y="1270.88" style="font-family:'Helvetica';font-size:43.19px;fill:#000000">3.33</text>
	<text x="3634.66" y="1358.87" style="font-family:'Helvetica';font-size:43.19px;fill:#000000">1.01</text>
	<text x="3634.66" y="1446.86" style="font-family:'Helvetica';font-size:43.19px;fill:#000000">12.58</text>
	<text x="3634.66" y="1534.84" style="font-family:'Helvetica';font-size:43.19px;fill:#000000">6.60</text>
	<text x="3634.66" y="1622.96" style="font-family:'Helvetica';font-size:43.19px;fill:#000000">0.74</text>
	<text x="3634.66" y="1710.95" style="font-family:'Helvetica';font-size:43.19px;fill:#000000">0.90</text>
	<text x="3634.66" y="1798.94" style="font-family:'Helvetica';font-size:43.19px;fill:#000000">0.06</text>
	<text x="3634.66" y="1886.92" style="font-family:'Helvetica';font-size:43.19px;fill:#000000">0.28</text>
	<text x="3634.66" y="1974.91" style="font-family:'Helvetica';font-size:43.19px;fill:#000000">0.18</text>
	<text x="3634.66" y="2062.90" style="font-family:'Helvetica';font-size:43.19px;fill:#000000">0.28</text>
	<text x="3634.66" y="2150.89" style="font-family:'Helvetica';font-size:43.19px;fill:#000000">0.16</text>
	<text x="3634.66" y="2239.00" style="font-family:'Helvetica';font-size:43.19px;fill:#000000">0.45</text>
	<text x="3634.66" y="2414.98" style="font-family:'Helvetica';font-size:43.19px;fill:#000000">100.00</text>
	<rect x="2069.98" y="654.05" width="147.49" height="147.49" style="fill:#B4B4B4"/>
	<rect x="2074.30" y="658.37" width="138.85" height="138.85" style="fill:none;stroke:#B4B4B4;stroke-width:8.64"/>
	<rect x="2118.61" y="760.11" width="111.35" height="111.36" style="fill:#B4B4B4"/>
	<rect x="2122.93" y="764.43" width="102.71" height="102.72" style="fill:none;stroke:#B4B4B4;stroke-width:8.64"/>
	<rect x="1596.76" y="875.57" width="56.41" height="56.41" style="fill:#B4B4B4"/>
	<rect x="1601.08" y="879.89" width="47.77" height="47.77" style="fill:none;stroke:#B4B4B4;stroke-width:8.64"/>
	<rect x="1618.91" y="961.33" width="60.86" height="60.86" style="fill:#B4B4B4"/>
	<rect x="1623.23" y="965.65" width="52.22" height="52.22" style="fill:none;stroke:#B4B4B4;stroke-width:8.64"/>
	<rect x="1314.98" y="1058.35" width="42.79" height="42.80" style="fill:#B4B4B4"/>
	<rect x="1319.30" y="1062.67" width="34.15" height="34.16" style="fill:none;stroke:#B4B4B4;stroke-width:8.64"/>
	<rect x="1332.18" y="1146.34" width="42.79" height="42.80" style="fill:#B4B4B4"/>
	<rect x="1336.50" y="1150.66" width="34.15" height="34.16" style="fill:none;stroke:#B4B4B4;stroke-width:8.64"/>
	<rect x="1290.23" y="1225.92" width="59.87" height="59.87" style="fill:#B4B4B4"/>
	<rect x="1294.55" y="1230.24" width="51.23" height="51.23" style="fill:none;stroke:#B4B4B4;stroke-width:8.64"/>
	<rect x="1214.87" y="1325.42" width="36.85" height="36.86" style="fill:#B4B4B4"/>
	<rect x="1219.19" y="1329.74" width="28.22" height="28.22" style="fill:none;stroke:#B4B4B4;stroke-width:8.64"/>
	<rect x="1216.72" y="1377.76" width="108.13" height="108.14" style="fill:#B4B4B4"/>
	<rect x="1221.04" y="1382.08" width="99.49" height="99.50" style="fill:none;stroke:#B4B4B4;stroke-width:8.64"/>
	<rect x="1161.03" y="1479.49" width="80.66" height="80.66" style="fill:#B4B4B4"/>
	<rect x="1165.35" y="1483.81" width="72.02" height="72.02" style="fill:none;stroke:#B4B4B4;stroke-width:8.64"/>
	<rect x="1039.76" y="1591.49" width="32.65" height="32.65" style="fill:#B4B4B4"/>
	<rect x="1044.08" y="1595.81" width="24.01" height="24.01" style="fill:none;stroke:#B4B4B4;stroke-width:8.64"/>
	<rect x="987.41" y="1678.11" width="35.37" height="35.37" style="fill:#B4B4B4"/>
	<rect x="991.73" y="1682.43" width="26.73" height="26.73" style="fill:none;stroke:#B4B4B4;stroke-width:8.64"/>
	<rect x="1121.81" y="1776.13" width="15.32" height="15.32" style="fill:#B4B4B4"/>
	<rect x="1126.13" y="1780.45" width="6.68" height="6.68" style="fill:none;stroke:#B4B4B4;stroke-width:8.64"/>
	<rect x="998.18" y="1860.16" width="23.49" height="23.49" style="fill:#B4B4B4"/>
	<rect x="1002.50" y="1864.48" width="14.85" height="14.85" style="fill:none;stroke:#B4B4B4;stroke-width:8.64"/>
	<rect x="1027.63" y="1949.63" width="20.52" height="20.52" style="fill:#B4B4B4"/>
	<rect x="1031.95" y="1953.95" width="11.88" height="11.88" style="fill:none;stroke:#B4B4B4;stroke-width:8.64"/>
	<rect x="1000.28" y="2036.13" width="23.49" height="23.49" style="fill:#B4B4B4"/>
	<rect x="1004.60" y="2040.45" width="14.85" height="14.85" style="fill:none;stroke:#B4B4B4;stroke-width:8.64"/>
	<rect x="1042.98" y="2125.98" width="19.78" height="19.78" style="fill:#B4B4B4"/>
	<rect x="1047.30" y="2130.30" width="11.14" height="11.14" style="fill:none;stroke:#B4B4B4;stroke-width:8.64"/>
	<rect x="965.01" y="2210.13" width="27.45" height="27.45" style="fill:#B4B4B4"/>
	<rect x="969.33" y="2214.45" width="18.81" height="18.81" style="fill:none;stroke:#B4B4B4;stroke-width:8.64"/>
	<line x1="2365.23" y1="639.68" x2="2675.10" y2="639.68" style="stroke:#D0D0D0;stroke-width:36.00"/>
	<line x1="1939.29" y1="727.67" x2="2444.56" y2="727.67" style="stroke:#D0D0D0;stroke-width:36.00"/>
	<line x1="1840.29" y1="815.66" x2="2508.78" y2="815.66" style="stroke:#D0D0D0;stroke-width:36.00"/>
	<line x1="1293.06" y1="903.65" x2="2275.52" y2="903.65" style="stroke:#D0D0D0;stroke-width:36.00"/>
	<line x1="1299.75" y1="991.76" x2="2189.51" y2="991.76" style="stroke:#D0D0D0;stroke-width:36.00"/>
	<line x1="1110.29" y1="1079.75" x2="2059.94" y2="1079.75" style="stroke:#D0D0D0;stroke-width:36.00"/>
	<line x1="1110.29" y1="1167.74" x2="2059.94" y2="1167.74" style="stroke:#D0D0D0;stroke-width:36.00"/>
	<line x1="1123.28" y1="1255.73" x2="1681.14" y2="1255.73" style="stroke:#D0D0D0;stroke-width:36.00"/>
	<line x1="1045.44" y1="1343.72" x2="1949.31" y2="1343.72" style="stroke:#D0D0D0;stroke-width:36.00"/>
	<line x1="1157.81" y1="1431.71" x2="1411.00" y2="1431.71" style="stroke:#D0D0D0;stroke-width:36.00"/>
	<line x1="1098.65" y1="1519.70" x2="1395.28" y2="1519.70" style="stroke:#D0D0D0;stroke-width:36.00"/>
	<line x1="966.86" y1="1607.81" x2="1329.32" y2="1607.81" style="stroke:#D0D0D0;stroke-width:36.00"/>
	<line x1="959.81" y1="1695.80" x2="1128.23" y2="1695.80" style="stroke:#D0D0D0;stroke-width:36.00"/>
	<line x1="954.11" y1="1783.79" x2="2675.10" y2="1783.79" style="stroke:#D0D0D0;stroke-width:36.00"/>
	<line x1="954.11" y1="1871.78" x2="1344.79" y2="1871.78" style="stroke:#D0D0D0;stroke-width:36.00"/>
	<line x1="954.11" y1="1959.77" x2="1788.81" y2="1959.77" style="stroke:#D0D0D0;stroke-width:36.00"/>
	<line x1="954.11" y1="2047.76" x2="1344.79" y2="2047.76" style="stroke:#D0D0D0;stroke-width:36.00"/>
	<line x1="954.11" y1="2135.74" x2="1983.71" y2="2135.74" style="stroke:#D0D0D0;stroke-width:36.00"/>
	<line x1="954.11" y1="2223.86" x2="1081.45" y2="2223.86" style="stroke:#D0D0D0;stroke-width:36.00"/>
	<line x1="1892.26" y1="639.68" x2="2675.10" y2="639.68" style="stroke:#000000;stroke-width:8.64"/>
	<line x1="1569.27" y1="727.67" x2="2675.10" y2="727.67" style="stroke:#000000;stroke-width:8.64"/>
	<line x1="1519.16" y1="815.66" x2="2675.10" y2="815.66" style="stroke:#000000;stroke-width:8.64"/>
	<line x1="1159.91" y1="903.65" x2="2448.89" y2="903.65" style="stroke:#000000;stroke-width:8.64"/>
	<line x1="1166.84" y1="991.76" x2="2390.73" y2="991.76" style="stroke:#000000;stroke-width:8.64"/>
	<line x1="1045.44" y1="1079.75" x2="2145.95" y2="1079.75" style="stroke:#000000;stroke-width:8.64"/>
	<line x1="1045.44" y1="1167.74" x2="2145.95" y2="1167.74" style="stroke:#000000;stroke-width:8.64"/>
	<line x1="1060.79" y1="1255.73" x2="1850.81" y2="1255.73" style="stroke:#000000;stroke-width:8.64"/>
	<line x1="1008.69" y1="1343.72" x2="1996.34" y2="1343.72" style="stroke:#000000;stroke-width:8.64"/>
	<line x1="1075.76" y1="1431.71" x2="1639.94" y2="1431.71" style="stroke:#000000;stroke-width:8.64"/>
	<line x1="1044.57" y1="1519.70" x2="1571.75" y2="1519.70" style="stroke:#000000;stroke-width:8.64"/>
	<line x1="968.10" y1="1607.81" x2="1378.95" y2="1607.81" style="stroke:#000000;stroke-width:8.64"/>
	<line x1="962.28" y1="1695.80" x2="1173.27" y2="1695.80" style="stroke:#000000;stroke-width:8.64"/>
	<line x1="963.89" y1="1783.79" x2="2469.43" y2="1783.79" style="stroke:#000000;stroke-width:8.64"/>
	<line x1="959.68" y1="1871.78" x2="1351.10" y2="1871.78" style="stroke:#000000;stroke-width:8.64"/>
	<line x1="961.54" y1="1959.77" x2="1661.22" y2="1959.77" style="stroke:#000000;stroke-width:8.64"/>
	<line x1="959.68" y1="2047.76" x2="1351.10" y2="2047.76" style="stroke:#000000;stroke-width:8.64"/>
	<line x1="962.03" y1="2135.74" x2="1782.00" y2="2135.74" style="stroke:#000000;stroke-width:8.64"/>
	<line x1="957.33" y1="2223.86" x2="1117.34" y2="2223.86" style="stroke:#000000;stroke-width:8.64"/>
	<polygon points="2126.97,727.80 2143.72,711.04 2160.47,727.80 2143.72,744.55" style="fill:#000000"/>
	<polygon points="2133.08,727.80 2143.72,717.15 2154.36,727.80 2143.72,738.44" style="fill:none;stroke:#000000;stroke-width:8.64"/>
	<polygon points="2157.54,815.79 2174.29,799.03 2191.04,815.79 2174.29,832.54" style="fill:#000000"/>
	<polygon points="2163.65,815.79 2174.29,805.14 2184.93,815.79 2174.29,826.43" style="fill:none;stroke:#000000;stroke-width:8.64"/>
	<polygon points="1608.21,903.77 1624.96,887.02 1641.71,903.77 1624.96,920.53" style="fill:#000000"/>
	<polygon points="1614.32,903.77 1624.96,893.13 1635.60,903.77 1624.96,914.42" style="fill:none;stroke:#000000;stroke-width:8.64"/>
	<polygon points="1632.59,991.76 1649.34,975.01 1666.09,991.76 1649.34,1008.52" style="fill:#000000"/>
	<polygon points="1638.70,991.76 1649.34,981.12 1659.98,991.76 1649.34,1002.41" style="fill:none;stroke:#000000;stroke-width:8.64"/>
	<polygon points="1319.62,1079.75 1336.38,1063.00 1353.13,1079.75 1336.38,1096.50" style="fill:#000000"/>
	<polygon points="1325.73,1079.75 1336.38,1069.11 1347.02,1079.75 1336.38,1090.39" style="fill:none;stroke:#000000;stroke-width:8.64"/>
	<polygon points="1336.83,1167.74 1353.58,1150.99 1370.33,1167.74 1353.58,1184.49" style="fill:#000000"/>
	<polygon points="1342.94,1167.74 1353.58,1157.10 1364.22,1167.74 1353.58,1178.38" style="fill:none;stroke:#000000;stroke-width:8.64"/>
	<polygon points="1303.41,1255.85 1320.17,1239.10 1336.92,1255.85 1320.17,1272.61" style="fill:#000000"/>
	<polygon points="1309.52,1255.85 1320.17,1245.21 1330.81,1255.85 1320.17,1266.50" style="fill:none;stroke:#000000;stroke-width:8.64"/>
	<polygon points="1216.54,1343.84 1233.29,1327.09 1250.04,1343.84 1233.29,1360.59" style="fill:#000000"/>
	<polygon points="1222.65,1343.84 1233.29,1333.20 1243.94,1343.84 1233.29,1354.49" style="fill:none;stroke:#000000;stroke-width:8.64"/>
	<polygon points="1254.04,1431.83 1270.79,1415.08 1287.54,1431.83 1270.79,1448.58" style="fill:#000000"/>
	<polygon points="1260.15,1431.83 1270.79,1421.19 1281.43,1431.83 1270.79,1442.47" style="fill:none;stroke:#000000;stroke-width:8.64"/>
	<polygon points="1184.61,1519.82 1201.37,1503.07 1218.12,1519.82 1201.37,1536.57" style="fill:#000000"/>
	<polygon points="1190.72,1519.82 1201.37,1509.18 1212.01,1519.82 1201.37,1530.46" style="fill:none;stroke:#000000;stroke-width:8.64"/>
	<polygon points="1039.33,1607.81 1056.08,1591.06 1072.83,1607.81 1056.08,1624.56" style="fill:#000000"/>
	<polygon points="1045.44,1607.81 1056.08,1597.17 1066.72,1607.81 1056.08,1618.45" style="fill:none;stroke:#000000;stroke-width:8.64"/>
	<polygon points="988.35,1695.80 1005.10,1679.05 1021.85,1695.80 1005.10,1712.55" style="fill:#000000"/>
	<polygon points="994.46,1695.80 1005.10,1685.16 1015.74,1695.80 1005.10,1706.44" style="fill:none;stroke:#000000;stroke-width:8.64"/>
	<polygon points="1112.71,1783.79 1129.47,1767.04 1146.22,1783.79 1129.47,1800.54" style="fill:#000000"/>
	<polygon points="1118.82,1783.79 1129.47,1773.15 1140.11,1783.79 1129.47,1794.43" style="fill:none;stroke:#000000;stroke-width:8.64"/>
	<polygon points="993.17,1871.90 1009.92,1855.15 1026.68,1871.90 1009.92,1888.65" style="fill:#000000"/>
	<polygon points="999.28,1871.90 1009.92,1861.26 1020.57,1871.90 1009.92,1882.54" style="fill:none;stroke:#000000;stroke-width:8.64"/>
	<polygon points="1021.14,1959.89 1037.89,1943.14 1054.64,1959.89 1037.89,1976.64" style="fill:#000000"/>
	<polygon points="1027.25,1959.89 1037.89,1949.25 1048.53,1959.89 1037.89,1970.53" style="fill:none;stroke:#000000;stroke-width:8.64"/>
	<polygon points="995.28,2047.88 1012.03,2031.13 1028.78,2047.88 1012.03,2064.63" style="fill:#000000"/>
	<polygon points="1001.39,2047.88 1012.03,2037.24 1022.67,2047.88 1012.03,2058.52" style="fill:none;stroke:#000000;stroke-width:8.64"/>
	<polygon points="1036.11,2135.87 1052.87,2119.12 1069.62,2135.87 1052.87,2152.62" style="fill:#000000"/>
	<polygon points="1042.22,2135.87 1052.87,2125.23 1063.51,2135.87 1052.87,2146.51" style="fill:none;stroke:#000000;stroke-width:8.64"/>
	<polygon points="961.99,2223.86 978.74,2207.11 995.49,2223.86 978.74,2240.61" style="fill:#000000"/>
	<polygon points="968.10,2223.86 978.74,2213.21 989.38,2223.86 978.74,2234.50" style="fill:none;stroke:#000000;stroke-width:8.64"/>
	<line x1="2675.10" y1="639.68" x2="2636.49" y2="660.72" stroke-linecap="round" style="stroke:#FF0000;stroke-width:8.64"/>
	<line x1="2675.10" y1="639.68" x2="2636.49" y2="618.65" stroke-linecap="round" style="stroke:#FF0000;stroke-width:8.64"/>
	<line x1="2675.10" y1="1783.79" x2="2636.49" y2="1804.83" stroke-linecap="round" style="stroke:#FF0000;stroke-width:8.64"/>
	<line x1="2675.10" y1="1783.79" x2="2636.49" y2="1762.75" stroke-linecap="round" style="stroke:#FF0000;stroke-width:8.64"/>
	<line x1="1217.33" y1="2399.83" x2="1523.98" y2="2434.98" style="stroke:#FF0000;stroke-width:8.64"/>
	<line x1="1523.98" y1="2434.98" x2="1953.39" y2="2399.83" style="stroke:#FF0000;stroke-width:8.64"/>
	<line x1="1953.39" y1="2399.83" x2="1523.98" y2="2364.57" style="stroke:#FF0000;stroke-width:8.64"/>
	<line x1="1523.98" y1="2364.57" x2="1217.33" y2="2399.83" style="stroke:#FF0000;stroke-width:8.64"/>
	<line x1="2610.54" y1="660.20" x2="2651.31" y2="619.42" stroke-linecap="round" style="fill:none;stroke:#808080;stroke-width:8.64"/>
	<line x1="2651.31" y1="660.20" x2="2610.54" y2="619.42" stroke-linecap="round" style="fill:none;stroke:#808080;stroke-width:8.64"/>
	<line x1="2159.84" y1="748.19" x2="2200.62" y2="707.41" stroke-linecap="round" style="fill:none;stroke:#808080;stroke-width:8.64"/>
	<line x1="2200.62" y1="748.19" x2="2159.84" y2="707.41" stroke-linecap="round" style="fill:none;stroke:#808080;stroke-width:8.64"/>
	<line x1="2132.49" y1="836.17" x2="2173.27" y2="795.40" stroke-linecap="round" style="fill:none;stroke:#808080;stroke-width:8.64"/>
	<line x1="2173.27" y1="836.17" x2="2132.49" y2="795.40" stroke-linecap="round" style="fill:none;stroke:#808080;stroke-width:8.64"/>
	<line x1="1645.78" y1="924.16" x2="1686.56" y2="883.39" stroke-linecap="round" style="fill:none;stroke:#808080;stroke-width:8.64"/>
	<line x1="1686.56" y1="924.16" x2="1645.78" y2="883.39" stroke-linecap="round" style="fill:none;stroke:#808080;stroke-width:8.64"/>
	<line x1="1622.02" y1="1012.15" x2="1662.80" y2="971.37" stroke-linecap="round" style="fill:none;stroke:#808080;stroke-width:8.64"/>
	<line x1="1662.80" y1="1012.15" x2="1622.02" y2="971.37" stroke-linecap="round" style="fill:none;stroke:#808080;stroke-width:8.64"/>
	<line x1="1382.57" y1="1100.14" x2="1423.34" y2="1059.36" stroke-linecap="round" style="fill:none;stroke:#808080;stroke-width:8.64"/>
	<line x1="1423.34" y1="1100.14" x2="1382.57" y2="1059.36" stroke-linecap="round" style="fill:none;stroke:#808080;stroke-width:8.64"/>
	<line x1="1382.57" y1="1188.13" x2="1423.34" y2="1147.35" stroke-linecap="round" style="fill:none;stroke:#808080;stroke-width:8.64"/>
	<line x1="1423.34" y1="1188.13" x2="1382.57" y2="1147.35" stroke-linecap="round" style="fill:none;stroke:#808080;stroke-width:8.64"/>
	<line x1="1295.94" y1="1276.24" x2="1336.72" y2="1235.47" stroke-linecap="round" style="fill:none;stroke:#808080;stroke-width:8.64"/>
	<line x1="1336.72" y1="1276.24" x2="1295.94" y2="1235.47" stroke-linecap="round" style="fill:none;stroke:#808080;stroke-width:8.64"/>
	<line x1="1261.54" y1="1364.23" x2="1302.31" y2="1323.45" stroke-linecap="round" style="fill:none;stroke:#808080;stroke-width:8.64"/>
	<line x1="1302.31" y1="1364.23" x2="1261.54" y2="1323.45" stroke-linecap="round" style="fill:none;stroke:#808080;stroke-width:8.64"/>
	<line x1="1241.24" y1="1452.22" x2="1282.02" y2="1411.44" stroke-linecap="round" style="fill:none;stroke:#808080;stroke-width:8.64"/>
	<line x1="1282.02" y1="1452.22" x2="1241.24" y2="1411.44" stroke-linecap="round" style="fill:none;stroke:#808080;stroke-width:8.64"/>
	<line x1="1189.52" y1="1540.21" x2="1230.29" y2="1499.43" stroke-linecap="round" style="fill:none;stroke:#808080;stroke-width:8.64"/>
	<line x1="1230.29" y1="1540.21" x2="1189.52" y2="1499.43" stroke-linecap="round" style="fill:none;stroke:#808080;stroke-width:8.64"/>
	<line x1="1005.38" y1="1628.20" x2="1046.15" y2="1587.42" stroke-linecap="round" style="fill:none;stroke:#808080;stroke-width:8.64"/>
	<line x1="1046.15" y1="1628.20" x2="1005.38" y2="1587.42" stroke-linecap="round" style="fill:none;stroke:#808080;stroke-width:8.64"/>
	<line x1="965.53" y1="1716.19" x2="1006.30" y2="1675.41" stroke-linecap="round" style="fill:none;stroke:#808080;stroke-width:8.64"/>
	<line x1="1006.30" y1="1716.19" x2="965.53" y2="1675.41" stroke-linecap="round" style="fill:none;stroke:#808080;stroke-width:8.64"/>
	<line x1="933.72" y1="1804.18" x2="974.50" y2="1763.40" stroke-linecap="round" style="fill:none;stroke:#808080;stroke-width:8.64"/>
	<line x1="974.50" y1="1804.18" x2="933.72" y2="1763.40" stroke-linecap="round" style="fill:none;stroke:#808080;stroke-width:8.64"/>
	<line x1="933.72" y1="1892.29" x2="974.50" y2="1851.51" stroke-linecap="round" style="fill:none;stroke:#808080;stroke-width:8.64"/>
	<line x1="974.50" y1="1892.29" x2="933.72" y2="1851.51" stroke-linecap="round" style="fill:none;stroke:#808080;stroke-width:8.64"/>
	<line x1="933.72" y1="1980.28" x2="974.50" y2="1939.50" stroke-linecap="round" style="fill:none;stroke:#808080;stroke-width:8.64"/>
	<line x1="974.50" y1="1980.28" x2="933.72" y2="1939.50" stroke-linecap="round" style="fill:none;stroke:#808080;stroke-width:8.64"/>
	<line x1="933.72" y1="2068.27" x2="974.50" y2="2027.49" stroke-linecap="round" style="fill:none;stroke:#808080;stroke-width:8.64"/>
	<line x1="974.50" y1="2068.27" x2="933.72" y2="2027.49" stroke-linecap="round" style="fill:none;stroke:#808080;stroke-width:8.64"/>
	<line x1="933.72" y1="2156.26" x2="974.50" y2="2115.48" stroke-linecap="round" style="fill:none;stroke:#808080;stroke-width:8.64"/>
	<line x1="974.50" y1="2156.26" x2="933.72" y2="2115.48" stroke-linecap="round" style="fill:none;stroke:#808080;stroke-width:8.64"/>
	<line x1="933.72" y1="2244.25" x2="974.50" y2="2203.47" stroke-linecap="round" style="fill:none;stroke:#808080;stroke-width:8.64"/>
	<line x1="974.50" y1="2244.25" x2="933.72" y2="2203.47" stroke-linecap="round" style="fill:none;stroke:#808080;stroke-width:8.64"/>
	<line x1="1523.98" y1="2487.82" x2="1523.98" y2="2464.81" style="stroke:#FF0000;stroke-width:5.76"/>
	<line x1="1523.98" y1="2444.63" x2="1523.98" y2="2421.62" style="stroke:#FF0000;stroke-width:5.76"/>
	<line x1="1523.98" y1="2401.44" x2="1523.98" y2="2378.43" style="stroke:#FF0000;stroke-width:5.76"/>
	<line x1="1523.98" y1="2358.25" x2="1523.98" y2="2335.24" style="stroke:#FF0000;stroke-width:5.76"/>
	<line x1="1523.98" y1="2315.06" x2="1523.98" y2="2292.05" style="stroke:#FF0000;stroke-width:5.76"/>
	<line x1="1523.98" y1="2271.87" x2="1523.98" y2="2248.86" style="stroke:#FF0000;stroke-width:5.76"/>
	<line x1="1523.98" y1="2228.68" x2="1523.98" y2="2205.67" style="stroke:#FF0000;stroke-width:5.76"/>
	<line x1="1523.98" y1="2185.49" x2="1523.98" y2="2162.48" style="stroke:#FF0000;stroke-width:5.76"/>
	<line x1="1523.98" y1="2142.30" x2="1523.98" y2="2119.28" style="stroke:#FF0000;stroke-width:5.76"/>
	<line x1="1523.98" y1="2099.11" x2="1523.98" y2="2076.09" style="stroke:#FF0000;stroke-width:5.76"/>
	<line x1="1523.98" y1="2055.92" x2="1523.98" y2="2032.78" style="stroke:#FF0000;stroke-width:5.76"/>
	<line x1="1523.98" y1="2012.73" x2="1523.98" y2="1989.59" style="stroke:#FF0000;stroke-width:5.76"/>
	<line x1="1523.98" y1="1969.42" x2="1523.98" y2="1946.40" style="stroke:#FF0000;stroke-width:5.76"/>
	<line x1="1523.98" y1="1926.23" x2="1523.98" y2="1903.21" style="stroke:#FF0000;stroke-width:5.76"/>
	<line x1="1523.98" y1="1883.04" x2="1523.98" y2="1860.02" style="stroke:#FF0000;stroke-width:5.76"/>
	<line x1="1523.98" y1="1839.85" x2="1523.98" y2="1816.83" style="stroke:#FF0000;stroke-width:5.76"/>
	<line x1="1523.98" y1="1796.66" x2="1523.98" y2="1773.64" style="stroke:#FF0000;stroke-width:5.76"/>
	<line x1="1523.98" y1="1753.47" x2="1523.98" y2="1730.45" style="stroke:#FF0000;stroke-width:5.76"/>
	<line x1="1523.98" y1="1710.28" x2="1523.98" y2="1687.26" style="stroke:#FF0000;stroke-width:5.76"/>
	<line x1="1523.98" y1="1667.09" x2="1523.98" y2="1644.07" style="stroke:#FF0000;stroke-width:5.76"/>
	<line x1="1523.98" y1="1623.90" x2="1523.98" y2="1600.88" style="stroke:#FF0000;stroke-width:5.76"/>
	<line x1="1523.98" y1="1580.71" x2="1523.98" y2="1557.69" style="stroke:#FF0000;stroke-width:5.76"/>
	<line x1="1523.98" y1="1537.52" x2="1523.98" y2="1514.50" style="stroke:#FF0000;stroke-width:5.76"/>
	<line x1="1523.98" y1="1494.33" x2="1523.98" y2="1471.31" style="stroke:#FF0000;stroke-width:5.76"/>
	<line x1="1523.98" y1="1451.14" x2="1523.98" y2="1428.12" style="stroke:#FF0000;stroke-width:5.76"/>
	<line x1="1523.98" y1="1407.95" x2="1523.98" y2="1384.93" style="stroke:#FF0000;stroke-width:5.76"/>
	<line x1="1523.98" y1="1364.76" x2="1523.98" y2="1341.74" style="stroke:#FF0000;stroke-width:5.76"/>
	<line x1="1523.98" y1="1321.57" x2="1523.98" y2="1298.55" style="stroke:#FF0000;stroke-width:5.76"/>
	<line x1="1523.98" y1="1278.38" x2="1523.98" y2="1255.36" style="stroke:#FF0000;stroke-width:5.76"/>
	<line x1="1523.98" y1="1235.19" x2="1523.98" y2="1212.17" style="stroke:#FF0000;stroke-width:5.76"/>
	<line x1="1523.98" y1="1192.00" x2="1523.98" y2="1168.98" style="stroke:#FF0000;stroke-width:5.76"/>
	<line x1="1523.98" y1="1148.81" x2="1523.98" y2="1125.67" style="stroke:#FF0000;stroke-width:5.76"/>
	<line x1="1523.98" y1="1105.62" x2="1523.98" y2="1082.48" style="stroke:#FF0000;stroke-width:5.76"/>
	<line x1="1523.98" y1="1062.30" x2="1523.98" y2="1039.28" style="stroke:#FF0000;stroke-width:5.76"/>
	<line x1="1523.98" y1="1019.11" x2="1523.98" y2="996.09" style="stroke:#FF0000;stroke-width:5.76"/>
	<line x1="1523.98" y1="975.92" x2="1523.98" y2="952.90" style="stroke:#FF0000;stroke-width:5.76"/>
	<line x1="1523.98" y1="932.73" x2="1523.98" y2="909.71" style="stroke:#FF0000;stroke-width:5.76"/>
	<line x1="1523.98" y1="889.54" x2="1523.98" y2="866.52" style="stroke:#FF0000;stroke-width:5.76"/>
	<line x1="1523.98" y1="846.35" x2="1523.98" y2="823.33" style="stroke:#FF0000;stroke-width:5.76"/>
	<line x1="1523.98" y1="803.16" x2="1523.98" y2="780.14" style="stroke:#FF0000;stroke-width:5.76"/>
	<line x1="1523.98" y1="759.97" x2="1523.98" y2="736.95" style="stroke:#FF0000;stroke-width:5.76"/>
	<line x1="1523.98" y1="716.78" x2="1523.98" y2="693.76" style="stroke:#FF0000;stroke-width:5.76"/>
	<line x1="1523.98" y1="673.59" x2="1523.98" y2="650.57" style="stroke:#FF0000;stroke-width:5.76"/>
	<line x1="1523.98" y1="630.40" x2="1523.98" y2="607.38" style="stroke:#FF0000;stroke-width:5.76"/>
	<line x1="1523.98" y1="587.21" x2="1523.98" y2="564.19" style="stroke:#FF0000;stroke-width:5.76"/>
	<line x1="1523.98" y1="544.02" x2="1523.98" y2="529.67" style="stroke:#FF0000;stroke-width:5.76"/>
	<text x="1994.97" y="348.39" style="font-family:'Helvetica';font-size:115.21px;fill:#0000ff" text-anchor="middle">Cytology = WNL</text>
	<text x="1994.97" y="198.65" style="font-family:'Helvetica';font-size:115.21px;fill:#0000ff" text-anchor="middle">Positivity of p16 immunostaining</text>
</svg>
